<svg id="Group_832" data-name="Group 832" xmlns="http://www.w3.org/2000/svg" xmlns:xlink="http://www.w3.org/1999/xlink" width="113.116" height="122.58" viewBox="0 0 113.116 122.58">
  <defs>
    <clipPath id="clip-path">
      <rect id="Rectangle_736" data-name="Rectangle 736" width="113.116" height="122.58" fill="none" stroke="#4e0003" stroke-width="6"/>
    </clipPath>
  </defs>
  <g id="Group_781" data-name="Group 781" clip-path="url(#clip-path)">
    <path id="Path_746" data-name="Path 746" d="M97.762,14.139,90.54,6.917C84.069.445,73.91,1.875,65.258,10.528c0,0-58.3,58.3-61.834,61.834S-.89,86.106,8.84,95.836l3.611,3.614" transform="translate(1.554 4.496)" fill="none" stroke="#4e0003" stroke-miterlimit="10" stroke-width="6"/>
    <path id="Path_747" data-name="Path 747" d="M39.4,48.23c-2.469-.889-7.9-4.288-12.641-9.028S18.622,29.03,17.734,26.561c-3.831,1.361-8.41,4.8-10.836,7.222C7.971,36.268,11.809,42.3,17.734,48.23S29.7,57.993,32.18,59.065C34.014,56.047,38.041,52.06,39.4,48.23Z" transform="translate(10.718 41.269)" fill="none" stroke="#4e0003" stroke-miterlimit="10" stroke-width="6"/>
    <path id="Path_748" data-name="Path 748" d="M90.795,7.3s3.716,3.718,7.225,7.225c6.469,6.471,5.039,16.628-3.614,25.28,0,0-58.3,58.3-61.834,61.834S18.827,105.949,9.1,96.219L5.484,92.608" transform="translate(8.521 11.338)" fill="none" stroke="#4e0003" stroke-miterlimit="10" stroke-width="6"/>
    <path id="Path_749" data-name="Path 749" d="M33.853,35.407c-4.689-4.689-10.435-8.177-12.641-9.03,1.974-5.355,5.248-12.47,9.03-16.252,5.491,2.334,13.167,9.556,16.252,12.641" transform="translate(32.958 15.732)" fill="none" stroke="#4e0003" stroke-miterlimit="10" stroke-width="6"/>
    <path id="Path_750" data-name="Path 750" d="M26.162,27.717c4.689,4.689,8.177,10.435,9.03,12.641,5.355-1.974,12.47-5.248,16.252-9.03C49.11,25.835,41.888,18.161,38.8,15.076" transform="translate(40.649 23.424)" fill="none" stroke="#4e0003" stroke-miterlimit="10" stroke-width="6"/>
    <line id="Line_38" data-name="Line 38" x1="25.719" y2="25.719" transform="translate(28.452 42.11)" fill="none" stroke="#4e0003" stroke-miterlimit="10" stroke-width="6"/>
    <line id="Line_39" data-name="Line 39" x1="25.719" y2="25.719" transform="translate(50.121 63.78)" fill="none" stroke="#4e0003" stroke-miterlimit="10" stroke-width="6"/>
    <line id="Line_40" data-name="Line 40" y2="15.323" transform="translate(106.459)" fill="none" stroke="#4e0003" stroke-miterlimit="10" stroke-width="6"/>
    <line id="Line_41" data-name="Line 41" y2="15.323" transform="translate(103.905 84.274)" fill="none" stroke="#4e0003" stroke-miterlimit="10" stroke-width="6"/>
    <line id="Line_42" data-name="Line 42" y2="15.323" transform="translate(103.905 61.29)" fill="none" stroke="#4e0003" stroke-miterlimit="10" stroke-width="6"/>
    <line id="Line_43" data-name="Line 43" y2="15.323" transform="translate(103.905 107.258)" fill="none" stroke="#4e0003" stroke-miterlimit="10" stroke-width="6"/>
  </g>
</svg>
