<svg id="Group_835" data-name="Group 835" xmlns="http://www.w3.org/2000/svg" xmlns:xlink="http://www.w3.org/1999/xlink" width="86.267" height="141.011" viewBox="0 0 86.267 141.011">
  <defs>
    <clipPath id="clip-path">
      <rect id="Rectangle_741" data-name="Rectangle 741" width="86.267" height="141.01" fill="#4e0003"/>
    </clipPath>
  </defs>
  <g id="Group_791" data-name="Group 791" clip-path="url(#clip-path)">
    <path id="Path_761" data-name="Path 761" d="M85.141,98.84,71.569,57.653a2.139,2.139,0,0,0-2.028-1.466H16.725A2.139,2.139,0,0,0,14.7,57.653L1.124,98.84a21.642,21.642,0,0,0,3.042,19.668,21.2,21.2,0,0,0,17.342,8.9h5.571c9.4,0,13.766,7.185,13.919,14.3v9.883q-10.284.64-20.51,7.424a2.134,2.134,0,0,0,1.184,3.911H64.591a2.134,2.134,0,0,0,1.185-3.911q-10.209-6.805-20.507-7.424v-9.883c.154-7.12,4.513-14.3,13.916-14.3h5.57a21.207,21.207,0,0,0,17.349-8.9A21.645,21.645,0,0,0,85.141,98.84M18.269,60.457H68l13.089,39.721a17.639,17.639,0,0,1,.806,7.132,50.7,50.7,0,0,1-37.961-.418C30.516,101.506,17.523,101.2,4.3,105.845a17.787,17.787,0,0,1,.883-5.668Zm11.655,98.2a32.651,32.651,0,0,1,13.107-2.9c.036,0,.066.021.1.021s.066-.019.1-.021a32.654,32.654,0,0,1,13.1,2.9ZM78.641,116a16.975,16.975,0,0,1-13.887,7.13h-5.57c-8.1,0-13.363,4.2-16.051,9.631-2.689-5.427-7.955-9.631-16.054-9.631H21.508A16.969,16.969,0,0,1,7.625,116a17.611,17.611,0,0,1-2.766-5.838c12.5-4.6,24.782-4.414,37.483.69a56.965,56.965,0,0,0,21.241,4.238,54.768,54.768,0,0,0,17.135-2.844A17.839,17.839,0,0,1,78.641,116" transform="translate(0 -21.916)" fill="#4e0003"/>
    <path id="Path_762" data-name="Path 762" d="M33.619,30.2A2.135,2.135,0,0,0,37.7,28.948a20,20,0,0,1-.737-3.555,18.968,18.968,0,0,1,9.8-18.778,19.283,19.283,0,0,1,16.471-.924A19.112,19.112,0,0,1,74.28,28.92a2.134,2.134,0,1,0,4.083,1.244A23.388,23.388,0,0,0,64.857,1.741,23.539,23.539,0,0,0,44.75,2.852,23.265,23.265,0,0,0,32.722,25.883a24.278,24.278,0,0,0,.9,4.317" transform="translate(-12.704 0)" fill="#4e0003"/>
    <path id="Path_763" data-name="Path 763" d="M62.171,23.317a9.381,9.381,0,1,0,11.735,6.191,9.32,9.32,0,0,0-11.735-6.191m7.291,11.35a5.111,5.111,0,1,1,.364-3.9,5.077,5.077,0,0,1-.364,3.9" transform="translate(-21.669 -8.932)" fill="#4e0003"/>
    <path id="Path_764" data-name="Path 764" d="M51.118,68.982a23.36,23.36,0,0,0,7.959,2.836,4.323,4.323,0,0,1,3.055,2.531l2.689,8.708a2.148,2.148,0,0,0,1.044,1.258l5.511,2.909-3.122,5.919a2.139,2.139,0,0,0,.891,2.884l5.9,3.114-2.9,5.49a2.14,2.14,0,0,0,.891,2.886l7.6,4.008a2.141,2.141,0,0,0,1,.247,2.138,2.138,0,0,0,1.888-1.139l4.006-7.594a2.121,2.121,0,0,0,.15-1.625l-9.857-31.9a3.5,3.5,0,0,1-.154-.984A2.181,2.181,0,0,0,75.5,66.42a2.136,2.136,0,0,0-2.109,2.162,7.733,7.733,0,0,0,.347,2.193l9.594,31.053-2.6,4.923-3.819-2.016,2.9-5.491a2.139,2.139,0,0,0-.891-2.885l-5.9-3.114,3.122-5.919a2.135,2.135,0,0,0-.891-2.883L68.64,80.952l-2.428-7.864A8.547,8.547,0,0,0,59.761,67.6a19.08,19.08,0,0,1-6.508-2.32,2.136,2.136,0,0,0-2.135,3.7" transform="translate(-19.523 -25.352)" fill="#4e0003"/>
  </g>
</svg>
