<svg xmlns="http://www.w3.org/2000/svg" xmlns:xlink="http://www.w3.org/1999/xlink" width="129" height="129" viewBox="0 0 129 129">
  <defs>
    <clipPath id="clip-path">
      <rect id="Rectangle_743" data-name="Rectangle 743" width="129" height="129" transform="translate(0 -0.089)" fill="#4e0003"/>
    </clipPath>
  </defs>
  <g id="Group_795" data-name="Group 795" transform="translate(0 0.089)" clip-path="url(#clip-path)">
    <path id="Path_771" data-name="Path 771" d="M145.453,153.4a22.973,22.973,0,0,0-5.637-13.048L118.97,116.6a13.543,13.543,0,0,0-10.4-4.422H77.138c-5.967,0-12.145,3.09-16.529,8.268-.008.01-.01.023-.018.033s-.022.015-.031.026A132.045,132.045,0,0,0,37.9,165.312a6.281,6.281,0,0,0,.949,5.469,5.733,5.733,0,0,0,4.66,2.177h1.212a10.632,10.632,0,0,0,.714,1.224,11.444,11.444,0,0,0,9.328,4.3,18.5,18.5,0,0,0,12.608-5.529h38.27a10.636,10.636,0,0,0,.715,1.224,11.444,11.444,0,0,0,9.328,4.3,18.5,18.5,0,0,0,12.608-5.529h7.271a5.494,5.494,0,0,0,4.625-2.858,56.779,56.779,0,0,0,4.976-11.266,15.78,15.78,0,0,0,.29-5.435m-96.926,18.4a8.808,8.808,0,0,1-1.166-7.765l0,0c1.664-6.364,8.029-11.54,14.191-11.54a7.629,7.629,0,0,1,6.236,2.786,8.814,8.814,0,0,1,1.167,7.766A15.451,15.451,0,0,1,65.24,169.6c-.017.016-.033.03-.049.046a14.849,14.849,0,0,1-10.427,4.932,7.629,7.629,0,0,1-6.236-2.786m60.92,0a8.811,8.811,0,0,1-1.167-7.764c1.663-6.364,8.029-11.54,14.193-11.54a7.627,7.627,0,0,1,6.236,2.788,8.81,8.81,0,0,1,1.166,7.764,15.453,15.453,0,0,1-3.708,6.552c-.022.021-.044.04-.065.061a14.844,14.844,0,0,1-10.418,4.924,7.627,7.627,0,0,1-6.236-2.786m31.938-13.947a54.91,54.91,0,0,1-4.621,10.37,1.6,1.6,0,0,1-1.2.834H131.44a18.553,18.553,0,0,0,2.213-5.021,12.775,12.775,0,0,0-1.853-11.14,11.441,11.441,0,0,0-9.328-4.306c-7.959,0-15.853,6.351-17.971,14.457v0a14.475,14.475,0,0,0-.329,6.009H70.519a18.531,18.531,0,0,0,2.213-5.023,12.769,12.769,0,0,0-1.854-11.139,11.444,11.444,0,0,0-9.328-4.3c-7.96,0-15.852,6.351-17.969,14.457l0,0a14.49,14.49,0,0,0-.33,5.968,1.744,1.744,0,0,1-1.308-.619,2.4,2.4,0,0,1-.275-2.045,128.109,128.109,0,0,1,21.947-43.4c3.6-4.232,8.773-6.861,13.525-6.861h2.7L66.6,133.762a1.952,1.952,0,0,0,1.393,3.116l49.634,4.335c.056,0,.113.008.17.008a1.952,1.952,0,0,0,1.9-2.423l-3.656-14.738a1.953,1.953,0,1,0-3.79.94l3,12.084-43.41-3.792,12.892-17.211h23.849a9.7,9.7,0,0,1,7.463,3.092l20.846,23.753a19.1,19.1,0,0,1,4.685,10.844,12.064,12.064,0,0,1-.18,4.077" transform="translate(-16.644 -49.575)" fill="#4e0003"/>
    <path id="Path_772" data-name="Path 772" d="M182.637,196.118a1.942,1.942,0,0,0-2.382,1.4l-1.358,5.2a1.951,1.951,0,0,0,1.4,2.382,1.916,1.916,0,0,0,.494.064,1.952,1.952,0,0,0,1.887-1.46l1.358-5.2a1.951,1.951,0,0,0-1.4-2.382" transform="translate(-79.034 -86.643)" fill="#4e0003"/>
    <path id="Path_773" data-name="Path 773" d="M73.473,196.118a1.943,1.943,0,0,0-2.382,1.4l-1.358,5.2a1.951,1.951,0,0,0,1.4,2.382,1.91,1.91,0,0,0,.494.064,1.952,1.952,0,0,0,1.887-1.46l1.358-5.2a1.95,1.95,0,0,0-1.4-2.382" transform="translate(-30.79 -86.643)" fill="#4e0003"/>
    <path id="Path_774" data-name="Path 774" d="M14.454,196.006H1.953a1.953,1.953,0,1,0,0,3.906h12.5a1.953,1.953,0,1,0,0-3.906" transform="translate(0 -86.623)" fill="#4e0003"/>
    <path id="Path_775" data-name="Path 775" d="M21.889,173.573H9.388a1.953,1.953,0,1,0,0,3.906h12.5a1.953,1.953,0,1,0,0-3.906" transform="translate(-3.286 -76.709)" fill="#4e0003"/>
    <path id="Path_776" data-name="Path 776" d="M16.825,155.046h12.5a1.953,1.953,0,1,0,0-3.906h-12.5a1.953,1.953,0,1,0,0,3.906" transform="translate(-6.573 -66.795)" fill="#4e0003"/>
    <path id="Path_777" data-name="Path 777" d="M24.26,132.613h12.5a1.953,1.953,0,1,0,0-3.906H24.26a1.953,1.953,0,1,0,0,3.906" transform="translate(-9.858 -56.881)" fill="#4e0003"/>
    <path id="Path_778" data-name="Path 778" d="M24.979,60.145a1.951,1.951,0,0,0,1.7-2.179,48.849,48.849,0,0,1-.372-6.01,48.049,48.049,0,0,1,96.1,0,49,49,0,0,1-.371,6.01,1.952,1.952,0,0,0,1.7,2.179,1.9,1.9,0,0,0,.244.015,1.952,1.952,0,0,0,1.935-1.712,52.639,52.639,0,0,0,.4-6.492,51.955,51.955,0,0,0-103.91,0,52.733,52.733,0,0,0,.4,6.492,1.942,1.942,0,0,0,2.179,1.7" transform="translate(-9.898)" fill="#4e0003"/>
    <path id="Path_779" data-name="Path 779" d="M182.474,94.633a1.894,1.894,0,0,0,.244.015,1.952,1.952,0,0,0,1.935-1.712,41.289,41.289,0,0,0-.514-13.334,1.953,1.953,0,1,0-3.827.785,37.224,37.224,0,0,1,.751,7.445,37.63,37.63,0,0,1-.285,4.622,1.951,1.951,0,0,0,1.7,2.179" transform="translate(-79.669 -34.489)" fill="#4e0003"/>
    <path id="Path_780" data-name="Path 780" d="M109.017,85.418a8.166,8.166,0,0,0,3.309-.74c.05-.013.1-.035.147-.052.066-.031.136-.04.2-.073.037-.018.059-.053.094-.074a1.746,1.746,0,0,0,.162-.08l33.377-23.7a1.953,1.953,0,0,0-1.727-3.453L105.608,69.765c-.05.016-.084.054-.132.073s-.1.016-.146.04a8.2,8.2,0,0,0,3.687,15.54m1.824-4.328A4.289,4.289,0,0,1,107,73.421l26.737-8.587Z" transform="translate(-44.547 -25.26)" fill="#4e0003"/>
    <path id="Path_781" data-name="Path 781" d="M87.892,37.854a1.95,1.95,0,0,0,1.845.47l21.85-5.785a1.953,1.953,0,0,0,.71-3.421L94.566,15.13a1.953,1.953,0,0,0-3.122,1.135L90.707,19.8A40.725,40.725,0,0,0,41.929,60.032a41.511,41.511,0,0,0,.291,4.907,1.847,1.847,0,0,0,.093.3,1.284,1.284,0,0,0,.334.658,1.884,1.884,0,0,0,.18.228,1.913,1.913,0,0,0,.388.261,1.832,1.832,0,0,0,.215.13,1.929,1.929,0,0,0,.727.148h0a2.01,2.01,0,0,0,.23-.013,1.81,1.81,0,0,0,.259-.085,1.876,1.876,0,0,0,.368-.122,1.826,1.826,0,0,0,.307-.207,1.894,1.894,0,0,0,.28-.241,1.925,1.925,0,0,0,.208-.308,1.4,1.4,0,0,0,.245-.711,1.844,1.844,0,0,0,.054-.265c0-15.466,15.758-32.764,36.847-32.764a32.815,32.815,0,0,1,5.124.449l-.76,3.645a1.953,1.953,0,0,0,.568,1.816M48.761,45.588A37.171,37.171,0,0,1,91.769,23.959c.012,0,.023,0,.035,0s.018.011.029.012a1.867,1.867,0,0,0,.33,0,1.981,1.981,0,0,0,.419,0,1.842,1.842,0,0,0,.3-.113,1.932,1.932,0,0,0,.391-.16,1.993,1.993,0,0,0,.244-.223,1.888,1.888,0,0,0,.295-.287,2,2,0,0,0,.156-.331,1.868,1.868,0,0,0,.158-.338c0-.012,0-.023,0-.036s.01-.018.013-.028l.48-2.308,12.183,9.612L91.793,33.738l.53-2.544a1.874,1.874,0,0,0,0-.371,2.017,2.017,0,0,0,0-.393,1.94,1.94,0,0,0-.141-.357,2.01,2.01,0,0,0-.137-.336,1.973,1.973,0,0,0-.275-.289,1.878,1.878,0,0,0-.244-.25,1.95,1.95,0,0,0-.368-.162,1.827,1.827,0,0,0-.332-.147l-.017,0h0s0,0-.007,0a36.7,36.7,0,0,0-7.842-.847c-12.7,0-26.36,6.863-34.2,17.55" transform="translate(-18.53 -6.5)" fill="#4e0003"/>
  </g>
</svg>
