<svg xmlns="http://www.w3.org/2000/svg" xmlns:xlink="http://www.w3.org/1999/xlink" width="130.828" height="110.021" viewBox="0 0 130.828 110.021">
  <defs>
    <clipPath id="clip-path">
      <rect id="Rectangle_759" data-name="Rectangle 759" width="130.828" height="110.021" fill="#4e0003"/>
    </clipPath>
  </defs>
  <g id="Group_838" data-name="Group 838" clip-path="url(#clip-path)">
    <path id="Path_790" data-name="Path 790" d="M149.859,36.834h-6.378a1.344,1.344,0,1,1,0-2.689h6.378a6.839,6.839,0,0,0,0-13.678,6.753,6.753,0,0,0-3.059.759,1.344,1.344,0,0,1-1.949-1.147,13.505,13.505,0,0,0-26.75-2.1,1.345,1.345,0,0,1-2.015.891,8.1,8.1,0,0,0-4.243-1.215,8.243,8.243,0,1,0,0,16.486h13.607a1.344,1.344,0,0,1,0,2.689H111.842a10.932,10.932,0,0,1,0-21.864,10.729,10.729,0,0,1,4.049.8A16.253,16.253,0,0,1,131.371,4.383,16.192,16.192,0,0,1,147.36,18.13a9.1,9.1,0,0,1,2.5-.351,9.528,9.528,0,1,1,0,19.055" transform="translate(-58.806 -2.554)" fill="#4e0003"/>
    <path id="Path_791" data-name="Path 791" d="M151.208,28.623a1.36,1.36,0,0,1-.261-.025,1.344,1.344,0,0,1-1.06-1.578,10.221,10.221,0,0,1,10.011-8.23,1.344,1.344,0,0,1,0,2.689,7.526,7.526,0,0,0-7.373,6.06,1.345,1.345,0,0,1-1.318,1.085" transform="translate(-87.333 -10.949)" fill="#4e0003"/>
    <path id="Path_792" data-name="Path 792" d="M116.661,50.428a1.344,1.344,0,0,1-1.344-1.344,4.926,4.926,0,0,1,4.92-4.921,1.344,1.344,0,0,1,0,2.689,2.234,2.234,0,0,0-2.231,2.233,1.344,1.344,0,0,1-1.344,1.344" transform="translate(-67.202 -25.736)" fill="#4e0003"/>
    <path id="Path_793" data-name="Path 793" d="M238.17,21.352H227.928a1.344,1.344,0,1,1,0-2.689H238.17a3.787,3.787,0,1,0,0-7.575,3.733,3.733,0,0,0-1.692.422,1.345,1.345,0,0,1-1.949-1.147,7.968,7.968,0,0,0-15.782-1.237,1.344,1.344,0,0,1-2.015.89,4.586,4.586,0,0,0-2.4-.689,1.344,1.344,0,1,1,0-2.689A7.184,7.184,0,0,1,216.558,7,10.656,10.656,0,0,1,237,8.511,6.171,6.171,0,0,1,238.17,8.4a6.476,6.476,0,0,1,0,12.952" transform="translate(-124.119)" fill="#4e0003"/>
    <path id="Path_794" data-name="Path 794" d="M160.023,94.242a1.345,1.345,0,0,1-1.344-1.344v-15.8h-7.126a1.344,1.344,0,0,1-1.108-2.106l15.447-22.471a1.344,1.344,0,0,1,2.452.762v15.8h7.127a1.344,1.344,0,0,1,1.108,2.106L161.131,93.659a1.344,1.344,0,0,1-1.108.583M154.107,74.4h5.916a1.344,1.344,0,0,1,1.344,1.344v12.82l11.548-16.8H167a1.344,1.344,0,0,1-1.344-1.344V57.607Z" transform="translate(-87.535 -30.265)" fill="#4e0003"/>
    <path id="Path_795" data-name="Path 795" d="M242.565,83.52h-6.8a1.344,1.344,0,0,1,0-2.689h6.8a3.362,3.362,0,0,0,0-6.723H241a1.344,1.344,0,0,1,0-2.688h1.569a6.05,6.05,0,1,1,0,12.1" transform="translate(-136.612 -41.621)" fill="#4e0003"/>
    <path id="Path_796" data-name="Path 796" d="M282.326,95.786H271.693a1.344,1.344,0,1,1,0-2.689h10.632a3.362,3.362,0,0,0,0-6.723h-1.569a1.344,1.344,0,0,1,0-2.688h1.569a6.05,6.05,0,1,1,0,12.1" transform="translate(-157.548 -48.769)" fill="#4e0003"/>
    <path id="Path_797" data-name="Path 797" d="M249.056,130.61h-1.568a1.344,1.344,0,1,1,0-2.689h1.568a3.362,3.362,0,1,0,0-6.723h-18.3a1.344,1.344,0,1,1,0-2.688h18.3a6.05,6.05,0,1,1,0,12.1" transform="translate(-133.691 -69.063)" fill="#4e0003"/>
    <path id="Path_798" data-name="Path 798" d="M243.675,108.932h-.388a1.344,1.344,0,0,1,0-2.689h.388a1.344,1.344,0,0,1,0,2.689" transform="translate(-140.994 -61.914)" fill="#4e0003"/>
    <path id="Path_799" data-name="Path 799" d="M257.321,108.932h-.852a1.344,1.344,0,1,1,0-2.689h.852a1.344,1.344,0,1,1,0,2.689" transform="translate(-148.676 -61.914)" fill="#4e0003"/>
    <path id="Path_800" data-name="Path 800" d="M271.151,108.932h-.388a1.344,1.344,0,1,1,0-2.689h.388a1.344,1.344,0,0,1,0,2.689" transform="translate(-157.006 -61.914)" fill="#4e0003"/>
    <path id="Path_801" data-name="Path 801" d="M104.414,115.911a1.345,1.345,0,0,1-1.107-2.106l.056-.082a1.344,1.344,0,0,1,2.216,1.523l-.056.082a1.344,1.344,0,0,1-1.109.583m2.695-3.92A1.344,1.344,0,0,1,106,109.885l.44-.64a1.344,1.344,0,0,1,2.216,1.523l-.44.64a1.343,1.343,0,0,1-1.109.583m3.078-4.478a1.344,1.344,0,0,1-1.107-2.106l.44-.64a1.344,1.344,0,1,1,2.216,1.523l-.44.64a1.342,1.342,0,0,1-1.109.583m3.078-4.477a1.345,1.345,0,0,1-1.107-2.106l.44-.64a1.344,1.344,0,1,1,2.216,1.523l-.44.64a1.342,1.342,0,0,1-1.109.583m3.078-4.478a1.345,1.345,0,0,1-1.107-2.106l.44-.64a1.344,1.344,0,0,1,2.215,1.523l-.44.64a1.343,1.343,0,0,1-1.109.583m3.078-4.478a1.345,1.345,0,0,1-1.107-2.106l.44-.64a1.344,1.344,0,0,1,2.216,1.523l-.44.64a1.343,1.343,0,0,1-1.109.583" transform="translate(-60.065 -52.886)" fill="#4e0003"/>
    <path id="Path_802" data-name="Path 802" d="M124.557,132.827a1.344,1.344,0,0,1-1.107-2.106l.44-.64a1.344,1.344,0,1,1,2.216,1.523l-.44.64a1.344,1.344,0,0,1-1.109.582m3.078-4.477a1.344,1.344,0,0,1-1.107-2.106l.44-.64a1.344,1.344,0,1,1,2.216,1.523l-.439.64a1.343,1.343,0,0,1-1.109.583m3.078-4.478a1.345,1.345,0,0,1-1.107-2.106l.44-.64a1.344,1.344,0,0,1,2.216,1.523l-.44.64a1.343,1.343,0,0,1-1.109.583" transform="translate(-71.804 -70.248)" fill="#4e0003"/>
    <path id="Path_803" data-name="Path 803" d="M106.219,103.036a1.345,1.345,0,0,1-1.107-2.106l.44-.64a1.344,1.344,0,1,1,2.216,1.523l-.44.64a1.342,1.342,0,0,1-1.109.583m3.078-4.478a1.345,1.345,0,0,1-1.107-2.106l.44-.64a1.344,1.344,0,1,1,2.215,1.523l-.44.64a1.343,1.343,0,0,1-1.109.583m3.078-4.478a1.345,1.345,0,0,1-1.107-2.106l.44-.64a1.344,1.344,0,0,1,2.216,1.523l-.44.64a1.343,1.343,0,0,1-1.109.583" transform="translate(-61.117 -52.886)" fill="#4e0003"/>
    <path id="Path_804" data-name="Path 804" d="M27.789,247.837h-8.61a4.462,4.462,0,0,1-4.313-4.587v-5.417a1.344,1.344,0,0,1,2.689,0v5.417a1.78,1.78,0,0,0,1.625,1.9h8.61a1.78,1.78,0,0,0,1.625-1.9,1.344,1.344,0,1,1,2.689,0,4.462,4.462,0,0,1-4.313,4.587" transform="translate(-8.663 -137.815)" fill="#4e0003"/>
    <path id="Path_805" data-name="Path 805" d="M12.852,172.3a13.162,13.162,0,0,1-8.086-2.194C1.6,167.756,0,163.532,0,157.552c0-2.55,1.2-5.683,3.565-9.311A48.375,48.375,0,0,1,6.443,144.3,7.267,7.267,0,0,1,2.014,143,5.409,5.409,0,0,1,0,138.454a4.767,4.767,0,0,1,1.58-3.7,6.878,6.878,0,0,1,5.366-1.344,13.836,13.836,0,0,1,5.56,1.932,58.576,58.576,0,0,1,3.067-5.414,21.109,21.109,0,0,1,4.823-5.682c2.635-1.87,8.747-3.053,17.676-3.419a1.344,1.344,0,1,1,.111,2.686c-11.6.476-15.214,2.2-16.23,2.926-2.292,1.626-5.721,7.131-7.712,11.513a1.344,1.344,0,0,1-2.174.395,10.342,10.342,0,0,0-5.463-2.27,4.27,4.27,0,0,0-3.247.7,2.1,2.1,0,0,0-.666,1.684,2.827,2.827,0,0,0,.958,2.409c1.529,1.177,4.646.7,5.719.416a1.345,1.345,0,0,1,1.33,2.215C7,147.464,2.689,153.528,2.689,157.552c0,5.083,1.238,8.582,3.681,10.4a10.549,10.549,0,0,0,6.482,1.663,1.344,1.344,0,0,1,0,2.689" transform="translate(0 -70.411)" fill="#4e0003"/>
    <path id="Path_806" data-name="Path 806" d="M179.733,189.777a1.344,1.344,0,0,1,0-2.689,10.548,10.548,0,0,0,6.482-1.663c2.443-1.817,3.682-5.315,3.682-10.4,0-1.992-1.082-4.7-3.128-7.842a49.466,49.466,0,0,0-4.879-6.216,1.344,1.344,0,0,1,1.332-2.214c1.07.283,4.188.761,5.717-.417a2.827,2.827,0,0,0,.959-2.409,2.1,2.1,0,0,0-.667-1.684,4.27,4.27,0,0,0-3.247-.7,10.34,10.34,0,0,0-5.469,2.276,1.344,1.344,0,1,1-1.894-1.908,12.627,12.627,0,0,1,7.02-3.035,6.877,6.877,0,0,1,5.366,1.344,4.768,4.768,0,0,1,1.579,3.7,5.408,5.408,0,0,1-2.014,4.544,7.434,7.434,0,0,1-4.429,1.313c2.655,3.291,6.442,8.769,6.442,13.24,0,5.98-1.6,10.2-4.766,12.556a13.161,13.161,0,0,1-8.086,2.194" transform="translate(-103.861 -87.886)" fill="#4e0003"/>
    <path id="Path_807" data-name="Path 807" d="M67.407,148.874c-14.237,0-26.457-.559-26.579-.565a1.344,1.344,0,0,1-1.162-1.9c2.039-4.485,5.171-9.274,6.839-10.459l.031-.021c.3-.2,3.314-2,15.228-2.445a1.344,1.344,0,0,1,.1,2.687c-10.375.389-13.514,1.836-13.848,2.006a30.327,30.327,0,0,0-5.028,7.53c4.05.157,13.654.477,24.417.477,1,0,1.513,0,2.433-.005h.081a1.344,1.344,0,0,1,0,2.688H69.85c-.924,0-1.44.005-2.443.005" transform="translate(-23.046 -77.789)" fill="#4e0003"/>
    <path id="Path_808" data-name="Path 808" d="M94.763,240.447H45.956a1.344,1.344,0,0,1,0-2.689H94.763a1.344,1.344,0,1,1,0,2.689" transform="translate(-25.998 -138.555)" fill="#4e0003"/>
    <path id="Path_809" data-name="Path 809" d="M169.389,247.837h-8.61a4.462,4.462,0,0,1-4.313-4.587,1.344,1.344,0,1,1,2.689,0,1.78,1.78,0,0,0,1.625,1.9h8.61a1.78,1.78,0,0,0,1.625-1.9v-5.417a1.344,1.344,0,0,1,2.689,0v5.417a4.462,4.462,0,0,1-4.313,4.587" transform="translate(-91.182 -137.815)" fill="#4e0003"/>
    <path id="Path_810" data-name="Path 810" d="M100.235,232.1a1.344,1.344,0,0,1-1.344-1.344v-4.057a.579.579,0,0,0-.579-.579H80.938a.579.579,0,0,0-.579.579v4.057a1.344,1.344,0,1,1-2.689,0v-4.057a3.271,3.271,0,0,1,3.267-3.267H98.312a3.271,3.271,0,0,1,3.267,3.267v4.057a1.344,1.344,0,0,1-1.344,1.344" transform="translate(-45.263 -130.204)" fill="#4e0003"/>
    <path id="Path_811" data-name="Path 811" d="M101.419,213.4H86.167a1.344,1.344,0,1,1,0-2.689h15.251a1.344,1.344,0,0,1,0,2.689" transform="translate(-49.431 -122.795)" fill="#4e0003"/>
    <path id="Path_812" data-name="Path 812" d="M100.157,201.609H78.539a1.344,1.344,0,0,1,0-2.689h21.618a1.344,1.344,0,1,1,0,2.689" transform="translate(-44.986 -115.922)" fill="#4e0003"/>
    <path id="Path_813" data-name="Path 813" d="M54.422,184.415a1.342,1.342,0,0,1-1.021-.469l-5.3-6.189a1.344,1.344,0,1,1,2.041-1.75l5.305,6.189a1.345,1.345,0,0,1-1.02,2.219" transform="translate(-27.84 -102.296)" fill="#4e0003"/>
    <path id="Path_814" data-name="Path 814" d="M147.056,184.416a1.345,1.345,0,0,1-1.02-2.219l5.305-6.189a1.344,1.344,0,1,1,2.041,1.75l-5.3,6.189a1.342,1.342,0,0,1-1.021.469" transform="translate(-84.915 -102.296)" fill="#4e0003"/>
    <path id="Path_815" data-name="Path 815" d="M161.2,208.57c-3.5,0-5.629-.766-6.513-2.343a3.928,3.928,0,0,1,.371-3.939,13.574,13.574,0,0,1,4.9-4.326,13.136,13.136,0,0,1,6.644-1.881,4.765,4.765,0,0,1,3.4,1.6,5.091,5.091,0,0,1,1.255,3.752,6.618,6.618,0,0,1-2.968,5.248,13.45,13.45,0,0,1-7.021,1.89l-.061,0m5.078-9.806c-3.206,0-7.538,2.659-8.927,4.928-.328.535-.446.991-.318,1.221.055.1.641.963,4.137.968,6.346-.294,7.262-2.793,7.4-4.648a2.388,2.388,0,0,0-.578-1.763,2.1,2.1,0,0,0-1.5-.7c-.071,0-.144,0-.216,0" transform="translate(-89.914 -114.265)" fill="#4e0003"/>
    <path id="Path_816" data-name="Path 816" d="M27.745,208.57l-.061,0a13.45,13.45,0,0,1-7.021-1.89,6.617,6.617,0,0,1-2.968-5.248,5.089,5.089,0,0,1,1.255-3.752,4.765,4.765,0,0,1,3.4-1.6,13.145,13.145,0,0,1,6.644,1.881,13.574,13.574,0,0,1,4.9,4.326,3.928,3.928,0,0,1,.371,3.939c-.883,1.576-3.014,2.343-6.513,2.343m-5.078-9.806c-.073,0-.144,0-.216,0a2.1,2.1,0,0,0-1.5.7,2.388,2.388,0,0,0-.578,1.763c.285,3.867,4.35,4.508,7.4,4.648,3.5-.005,4.082-.87,4.137-.968.129-.229.01-.686-.318-1.221-1.389-2.269-5.721-4.928-8.927-4.928" transform="translate(-10.303 -114.265)" fill="#4e0003"/>
  </g>
</svg>
