<svg id="Group_836" data-name="Group 836" xmlns="http://www.w3.org/2000/svg" xmlns:xlink="http://www.w3.org/1999/xlink" width="121" height="121" viewBox="0 0 121 121">
  <defs>
    <clipPath id="clip-path">
      <rect id="Rectangle_742" data-name="Rectangle 742" width="121" height="121" fill="#4e0003"/>
    </clipPath>
  </defs>
  <g id="Group_793" data-name="Group 793" clip-path="url(#clip-path)">
    <path id="Path_765" data-name="Path 765" d="M46.785,168.71a9.612,9.612,0,0,1-4.222-2.956,1.832,1.832,0,0,0-2.042-.555l-18.288,6.654a1.833,1.833,0,0,0-1,2.561,32.294,32.294,0,0,0,24.71,17.3,2.047,2.047,0,0,0,.226.014A1.835,1.835,0,0,0,48,189.891l.008-19.45a1.838,1.838,0,0,0-1.223-1.731m-2.452,19.027a28.638,28.638,0,0,1-18.82-13.177l15.111-5.5a13.28,13.28,0,0,0,3.718,2.6Z" transform="translate(-10.013 -78.613)" fill="#4e0003"/>
    <path id="Path_766" data-name="Path 766" d="M105.846,171.852,87.558,165.2a1.831,1.831,0,0,0-2.042.555,9.631,9.631,0,0,1-4.214,2.954,1.831,1.831,0,0,0-1.223,1.727v19.456a1.83,1.83,0,0,0,1.833,1.833,2.055,2.055,0,0,0,.226-.014,32.293,32.293,0,0,0,24.71-17.3,1.833,1.833,0,0,0-1-2.561m-22.1,15.885V171.661a13.21,13.21,0,0,0,3.71-2.6l15.111,5.5a28.639,28.639,0,0,1-18.82,13.177" transform="translate(-38.133 -78.613)" fill="#4e0003"/>
    <path id="Path_767" data-name="Path 767" d="M113.3,0H72.233a7.7,7.7,0,0,0-7.455,5.867H48.5A7.446,7.446,0,0,0,41.067,13.3V31.43A7.446,7.446,0,0,0,48.5,38.867H64.533V49.518A39.965,39.965,0,1,0,74.7,100.8a22.776,22.776,0,0,0,7.437,6.7v11.668a1.833,1.833,0,0,0,3.667,0V109.113a22,22,0,0,0,7.1,1.187,1.833,1.833,0,1,0,0-3.667c-10.206,0-18.831-8.817-18.831-19.256V85.8H82.8a16.059,16.059,0,0,0,6.023,17.245A1.834,1.834,0,0,0,91,100.088a12.528,12.528,0,0,1-5.1-10.069,12.367,12.367,0,0,1,1.292-5.54,1.734,1.734,0,0,0,.068-.253,1.834,1.834,0,0,0,.109-.406,1.8,1.8,0,0,0-.026-.331,1.755,1.755,0,0,0-.049-.365,1.79,1.79,0,0,0-.184-.359,1.674,1.674,0,0,0-.124-.242L76.026,68.75a3.271,3.271,0,0,1-.355-3.9,3.154,3.154,0,0,1,5.045-.269l21.948,24.18a1.833,1.833,0,1,0,2.716-2.463l-.453-.5h6.54v33.367a1.833,1.833,0,0,0,3.667,0V85.555A7.7,7.7,0,0,0,121,78.1V7.7A7.709,7.709,0,0,0,113.3,0M72.233,3.667H113.3A4.039,4.039,0,0,1,117.333,7.7v4.033H91.492A7.446,7.446,0,0,0,84.23,5.867H68.661a4.024,4.024,0,0,1,3.572-2.2M44.733,31.43V13.3A3.773,3.773,0,0,1,48.5,9.533H84.23A3.773,3.773,0,0,1,88,13.3V31.167a1.832,1.832,0,0,0,.536,1.3L91.274,35.2H48.5a3.773,3.773,0,0,1-3.769-3.77M75.569,74.067l6.415,8.067H72.233A4.039,4.039,0,0,1,68.2,78.1V74.067ZM64.533,72.233V78.1a7.677,7.677,0,0,0,3.843,6.625c-.028.2-.045.409-.076.614l-15.113-5.5a13.269,13.269,0,0,0-26.431,0l-15.122,5.5a28.112,28.112,0,0,1-.34-4.306A28.657,28.657,0,0,1,64.533,66.29Zm-24.567,45.1A36.3,36.3,0,1,1,64.533,54.348V60.1A32.273,32.273,0,0,0,8.45,88.2a1.832,1.832,0,0,0,2.415,1.318l18.29-6.655a1.975,1.975,0,0,0,1.2-1.83,9.608,9.608,0,1,1,19.215.065,1.832,1.832,0,0,0,1.206,1.762l18.288,6.658a1.812,1.812,0,0,0,1.434-.091,23.039,23.039,0,0,0,2.027,7.62,36.43,36.43,0,0,1-32.562,20.286M77.928,59.792A6.762,6.762,0,0,0,72.7,70.4H68.2V38.867H95.7A1.835,1.835,0,0,0,97,35.736l-5.331-5.328V15.4h25.667v55H90.949l-7.481-8.242a6.736,6.736,0,0,0-5.54-2.366M113.3,82.133H101.6l-7.322-8.067h23.057V78.1a4.039,4.039,0,0,1-4.033,4.033" fill="#4e0003"/>
    <path id="Path_768" data-name="Path 768" d="M126.867,41.3V35.433a1.833,1.833,0,0,0-3.667,0V41.3a1.833,1.833,0,0,0,3.667,0" transform="translate(-58.667 -16)" fill="#4e0003"/>
    <path id="Path_769" data-name="Path 769" d="M102.633,33.6a1.835,1.835,0,0,0-1.833,1.833V41.3a1.833,1.833,0,0,0,3.667,0V35.433a1.835,1.835,0,0,0-1.833-1.833" transform="translate(-48 -16)" fill="#4e0003"/>
    <path id="Path_770" data-name="Path 770" d="M147.433,43.133a1.835,1.835,0,0,0,1.833-1.833V35.433a1.833,1.833,0,0,0-3.667,0V41.3a1.835,1.835,0,0,0,1.833,1.833" transform="translate(-69.333 -16)" fill="#4e0003"/>
  </g>
</svg>
