<svg id="Group_834" data-name="Group 834" xmlns="http://www.w3.org/2000/svg" xmlns:xlink="http://www.w3.org/1999/xlink" width="124" height="123.955" viewBox="0 0 124 123.955">
  <defs>
    <clipPath id="clip-path">
      <rect id="Rectangle_740" data-name="Rectangle 740" width="124" height="123.955" fill="#4e0003"/>
    </clipPath>
  </defs>
  <g id="Group_789" data-name="Group 789" clip-path="url(#clip-path)">
    <path id="Path_754" data-name="Path 754" d="M114.488,167.907,94.3,160.561a1.879,1.879,0,0,0-2.093.571,10.76,10.76,0,0,1-4.715,3.305,1.881,1.881,0,0,0-1.251,1.772v21.472a1.876,1.876,0,0,0,1.879,1.879,1.776,1.776,0,0,0,.232-.015,35.508,35.508,0,0,0,27.163-19.011,1.88,1.88,0,0,0-1.028-2.626M90,185.48V167.47a14.525,14.525,0,0,0,4.2-2.946l16.929,6.161A31.751,31.751,0,0,1,90,185.48" transform="translate(-39.943 -74.312)" fill="#4e0003"/>
    <path id="Path_755" data-name="Path 755" d="M50.884,164.44a10.766,10.766,0,0,1-4.724-3.309,1.88,1.88,0,0,0-2.093-.571l-20.184,7.347a1.88,1.88,0,0,0-1.028,2.626,35.493,35.493,0,0,0,27.16,19.011,1.769,1.769,0,0,0,.232.015,1.881,1.881,0,0,0,1.879-1.878l.012-21.468a1.879,1.879,0,0,0-1.254-1.773m-2.516,21.04a31.732,31.732,0,0,1-21.126-14.8l16.925-6.161a14.546,14.546,0,0,0,4.213,2.951Z" transform="translate(-10.489 -74.312)" fill="#4e0003"/>
    <path id="Path_756" data-name="Path 756" d="M51.229,82.778a35.461,35.461,0,0,0-34.644,43.429,1.881,1.881,0,0,0,1.832,1.464,1.91,1.91,0,0,0,.643-.113l20.184-7.344a2.041,2.041,0,0,0,1.236-1.886,10.748,10.748,0,0,1,21.5,0v.118a1.878,1.878,0,0,0,1.236,1.766L83.4,127.557a1.879,1.879,0,0,0,2.475-1.351A35.458,35.458,0,0,0,51.229,82.778m31.387,40.5L65.686,117.11a14.5,14.5,0,0,0-28.9,0l-16.94,6.164a31.013,31.013,0,0,1-.4-4.947,31.793,31.793,0,0,1,63.585,0,31.016,31.016,0,0,1-.405,4.947" transform="translate(-7.262 -38.339)" fill="#4e0003"/>
    <path id="Path_757" data-name="Path 757" d="M120.541,69.381a27.713,27.713,0,0,0,2.689-11.965V54.166a27.977,27.977,0,0,0-1.95-10.181,27.857,27.857,0,0,0,1.95-10.2V30.531a27.719,27.719,0,0,0-2.686-11.962,4.114,4.114,0,0,1,.118-4.032c3.67-5.434,4.368-10.409,1.826-12.983-2.671-2.7-7.824-1.84-13.449,2.249a4.119,4.119,0,0,1-3.925.528A26.97,26.97,0,0,0,95.589,2.6h-19.3A27.038,27.038,0,0,0,66.007,4.647,27.262,27.262,0,0,0,55.737,2.6h-19.3a26.989,26.989,0,0,0-9.521,1.731A4.1,4.1,0,0,1,22.99,3.8C17.365-.285,12.21-1.147,9.541,1.555,7,4.125,7.7,9.1,11.367,14.537a4.117,4.117,0,0,1,.121,4.031A27.688,27.688,0,0,0,8.8,30.531V33.78a27.823,27.823,0,0,0,1.945,10.193,27.81,27.81,0,0,0-1.921,9.706A43.928,43.928,0,1,0,87.578,85.323l8.011.024a27.027,27.027,0,0,0,9.524-1.731,4.129,4.129,0,0,1,3.925.527c3.452,2.509,6.729,3.8,9.363,3.8a5.547,5.547,0,0,0,4.086-1.553c2.543-2.573,1.844-7.548-1.826-12.983a4.062,4.062,0,0,1-.12-4.029M43.968,120.2a40.21,40.21,0,1,1,40.21-40.21,40.255,40.255,0,0,1-40.21,40.21M119.816,83.75c-1.019,1.017-4.5.311-8.57-2.648a7.92,7.92,0,0,0-7.455-1,23.293,23.293,0,0,1-8.2,1.49l-7.74-.023c.019-.528.08-1.046.08-1.578A43.928,43.928,0,0,0,13.22,48.614a23.976,23.976,0,0,1,1.251-3.907c0-.005,0-.011,0-.017a1.874,1.874,0,0,0,.123-.6c0-.039.023-.076.023-.115s-.02-.076-.023-.115a1.877,1.877,0,0,0-.123-.6s0-.011,0-.017a24.062,24.062,0,0,1-1.914-9.459V30.531a24,24,0,0,1,2.328-10.356,7.784,7.784,0,0,0-.4-7.74c-2.745-4.067-3.218-7.28-2.269-8.238,1.012-1.024,4.494-.316,8.57,2.648a7.923,7.923,0,0,0,7.454,1,23.239,23.239,0,0,1,8.2-1.491h19.3A23.4,23.4,0,0,1,70.566,11.62,1.879,1.879,0,0,0,72.927,8.7a27.573,27.573,0,0,0-2.269-1.627,23.388,23.388,0,0,1,5.633-.711h19.3a23.208,23.208,0,0,1,8.2,1.493,7.927,7.927,0,0,0,7.455-1.006c4.078-2.962,7.557-3.673,8.57-2.648.948.96.476,4.173-2.267,8.238a7.771,7.771,0,0,0-.4,7.742,24.019,24.019,0,0,1,2.325,10.355V33.78a24.286,24.286,0,0,1-.62,5.379,28.092,28.092,0,0,0-5.7-6.518,1.878,1.878,0,1,0-2.407,2.883,24.239,24.239,0,0,1,8.723,18.642v3.249a24,24,0,0,1-2.328,10.357,7.781,7.781,0,0,0,.4,7.739c2.745,4.065,3.217,7.278,2.269,8.238" transform="translate(0 0)" fill="#4e0003"/>
    <path id="Path_758" data-name="Path 758" d="M134.413,59.049H132.3l3.749-6.66a1.878,1.878,0,0,0-1.638-2.8h-5.326a1.879,1.879,0,0,0,0,3.758h2.11l-3.749,6.66a1.878,1.878,0,0,0,1.638,2.8h5.326a1.879,1.879,0,0,0,0-3.758" transform="translate(-58.917 -22.967)" fill="#4e0003"/>
    <path id="Path_759" data-name="Path 759" d="M160.317,47.389h-3.406l5.044-8.96a1.879,1.879,0,0,0-1.638-2.8H153.7a1.879,1.879,0,0,0,0,3.758H157.1l-5.044,8.96a1.879,1.879,0,0,0,1.638,2.8h6.62a1.879,1.879,0,1,0,0-3.758" transform="translate(-70.315 -16.501)" fill="#4e0003"/>
    <path id="Path_760" data-name="Path 760" d="M185.422,36.416h-4.736l6.373-11.325a1.881,1.881,0,0,0-1.638-2.8h-7.947a1.879,1.879,0,1,0,0,3.758h4.736l-6.374,11.325a1.881,1.881,0,0,0,1.638,2.8h7.947a1.879,1.879,0,1,0,0-3.758" transform="translate(-81.328 -10.324)" fill="#4e0003"/>
  </g>
</svg>
